<?xml version="1.0" encoding="utf-8"?>
<!-- Generator: Adobe Illustrator 21.0.0, SVG Export Plug-In . SVG Version: 6.00 Build 0)  -->
<svg version="1.1" id="Layer_1" xmlns="http://www.w3.org/2000/svg" xmlns:xlink="http://www.w3.org/1999/xlink" x="0px" y="0px"
	 viewBox="0 0 512 512" style="enable-background:new 0 0 512 512;" xml:space="preserve">
<g>
	<path d="M256,0c-54.1,0-98.5,44.4-98.5,98.5v19.7H60.3l-1.2,18.5L39.4,491.1L38.2,512h435.7l-1.2-20.9l-19.7-354.5l-1.2-18.5h-97.2
		V98.5C354.5,44.4,310.1,0,256,0z M256,39.4c32.6,0,59.1,26.5,59.1,59.1v19.7H196.9V98.5C196.9,65.8,223.4,39.4,256,39.4z
		 M97.2,157.5h60.3v59.1h39.4v-59.1h118.2v59.1h39.4v-59.1h60.3L432,472.6H80L97.2,157.5z"/>
</g>
</svg>
