<?xml version="1.0" standalone="no"?>
<!DOCTYPE svg PUBLIC "-//W3C//DTD SVG 20010904//EN"
 "http://www.w3.org/TR/2001/REC-SVG-20010904/DTD/svg10.dtd">
<svg version="1.0" xmlns="http://www.w3.org/2000/svg"
 width="150.000000pt" height="82.000000pt" viewBox="0 0 150.000000 82.000000"
 preserveAspectRatio="xMidYMid meet">

<g transform="translate(0.000000,82.000000) scale(0.100000,-0.100000)"
fill="#000000" stroke="none">
<path d="M223 800 c-22 -9 -39 -43 -29 -59 3 -4 35 -11 71 -14 88 -7 115 -30
115 -99 0 -61 -19 -74 -117 -84 -40 -3 -70 -10 -68 -14 3 -5 40 -11 83 -15
134 -13 175 -45 156 -123 -12 -49 -45 -64 -159 -71 l-90 -6 3 -60 c3 -75 18
-114 48 -121 30 -8 40 0 64 46 40 78 122 114 196 85 47 -18 100 -71 110 -110
l6 -25 179 0 180 0 -3 325 c-2 249 -6 327 -16 337 -10 10 -91 13 -360 15 -191
1 -357 -2 -369 -7z"/>
<path d="M116 672 c-33 -8 -52 -32 -43 -56 9 -23 218 -24 241 0 36 35 11 51
-89 57 -44 3 -93 3 -109 -1z"/>
<path d="M1021 498 c2 -222 12 -361 26 -365 6 -3 19 9 28 26 77 150 235 156
313 11 17 -32 23 -35 63 -35 l44 0 3 132 c2 122 1 133 -17 142 -11 6 -78 14
-150 17 l-131 7 0 48 c0 76 13 99 55 99 42 0 44 8 9 41 -23 22 -35 24 -135 27
l-109 4 1 -154z"/>
<path d="M44 450 c-24 -10 -35 -31 -25 -49 14 -21 75 -31 202 -31 142 0 163 7
157 55 l-3 30 -155 2 c-85 1 -164 -2 -176 -7z"/>
<path d="M403 215 c-34 -14 -63 -59 -63 -97 0 -38 35 -85 74 -98 29 -9 41 -8
71 6 73 34 89 109 34 163 -17 17 -37 31 -44 31 -7 0 -19 2 -27 5 -7 2 -27 -2
-45 -10z"/>
<path d="M1193 214 c-73 -36 -80 -137 -13 -182 44 -30 82 -24 127 20 53 51 37
130 -33 163 -39 18 -41 18 -81 -1z"/>
</g>
</svg>
