<?xml version="1.0" standalone="no"?>
<!DOCTYPE svg PUBLIC "-//W3C//DTD SVG 20010904//EN"
 "http://www.w3.org/TR/2001/REC-SVG-20010904/DTD/svg10.dtd">
<svg version="1.0" xmlns="http://www.w3.org/2000/svg"
 width="1280.000000pt" height="1280.000000pt" viewBox="0 0 1280.000000 1280.000000"
 preserveAspectRatio="xMidYMid meet">

<g transform="translate(0.000000,1280.000000) scale(0.100000,-0.100000)"
fill="#000000" stroke="none">
<path d="M8395 10975 c-88 -22 -122 -42 -429 -257 -165 -117 -322 -227 -348
-245 -97 -67 -149 -104 -200 -140 -29 -20 -136 -95 -238 -167 -102 -71 -210
-147 -240 -168 -30 -21 -91 -64 -135 -94 -44 -30 -114 -79 -155 -108 -41 -29
-277 -195 -525 -368 -247 -173 -475 -332 -506 -354 -390 -273 -587 -411 -672
-471 -56 -40 -122 -86 -147 -103 -333 -231 -360 -253 -412 -329 -87 -124 -100
-278 -42 -462 4 -11 -13 -27 -55 -52 -66 -41 -160 -139 -186 -194 -19 -40 -59
-195 -80 -314 -62 -349 -160 -1008 -250 -1694 -55 -418 -72 -485 -140 -547
-39 -36 -314 -275 -428 -372 -31 -27 -57 -55 -57 -64 0 -8 46 -88 101 -176 97
-153 720 -1150 967 -1548 92 -147 120 -184 132 -178 15 8 193 189 461 466 74
78 162 159 195 180 123 83 324 154 574 204 58 12 121 25 140 30 19 5 78 18
130 30 130 30 261 75 345 118 96 49 225 151 286 225 199 244 371 922 654 2582
19 110 78 441 109 608 71 382 -4 624 -227 727 -139 65 -351 63 -493 -5 -118
-57 -211 -175 -263 -335 -36 -110 -51 -184 -92 -475 -69 -490 -115 -669 -199
-775 -39 -50 -138 -100 -196 -100 l-42 0 -336 479 c-185 263 -338 486 -341
494 -4 10 30 40 112 98 190 134 1203 844 1938 1358 374 261 1004 702 1399 978
462 323 725 501 735 498 20 -7 1118 -1577 1148 -1642 47 -100 22 -242 -55
-319 -17 -17 -487 -351 -1044 -741 -557 -390 -1037 -726 -1065 -746 -83 -58
-134 -94 -492 -345 -185 -130 -361 -252 -391 -273 -30 -21 -88 -62 -129 -91
l-74 -53 -22 -115 c-42 -216 -42 -205 2 -233 82 -52 159 -71 283 -72 134 0
209 21 307 84 130 84 223 243 223 382 l0 46 71 -14 c201 -42 435 75 539 268
32 59 35 71 37 159 1 52 6 94 11 93 5 -1 45 -6 88 -12 137 -17 269 9 381 75
180 105 274 321 231 527 -11 49 -12 71 -4 82 13 16 129 99 708 504 494 345
525 372 580 500 28 68 32 86 31 171 0 111 -21 180 -81 268 -115 172 -1639
2343 -1665 2372 -110 128 -299 187 -462 145z m240 -202 c22 -12 54 -36 71 -55
46 -48 114 -149 114 -167 -1 -13 -581 -426 -1209 -862 -63 -43 -102 -71 -223
-156 -29 -20 -134 -94 -233 -163 -99 -69 -204 -143 -232 -163 -29 -20 -75 -53
-103 -72 -27 -19 -71 -50 -97 -68 -336 -235 -767 -537 -798 -558 -22 -16 -213
-149 -425 -298 -212 -148 -407 -284 -433 -303 -26 -18 -70 -49 -97 -68 -27
-19 -71 -50 -97 -68 -26 -18 -86 -60 -132 -93 -46 -32 -90 -59 -97 -59 -7 0
-40 40 -73 90 -42 63 -62 103 -67 136 -17 113 22 225 98 287 24 19 795 560
1713 1202 919 643 1756 1228 1860 1301 105 74 208 140 230 149 57 21 178 15
230 -12z"/>
<path d="M2462 4429 c-212 -131 -262 -165 -262 -183 0 -18 67 -132 233 -396
19 -30 76 -122 127 -205 51 -82 143 -231 205 -330 62 -99 161 -259 221 -355
59 -96 141 -229 182 -295 41 -66 152 -246 247 -400 291 -472 269 -440 299
-443 17 -2 42 6 64 21 36 24 134 85 357 222 113 70 125 79 125 105 0 9 -42 83
-93 165 -51 83 -153 247 -227 365 -73 118 -172 278 -220 355 -48 77 -211 340
-362 585 -486 786 -579 935 -591 942 -7 4 -19 8 -27 8 -9 0 -134 -73 -278
-161z"/>
</g>
</svg>
