<?xml version="1.0" standalone="no"?>
<!DOCTYPE svg PUBLIC "-//W3C//DTD SVG 20010904//EN"
 "http://www.w3.org/TR/2001/REC-SVG-20010904/DTD/svg10.dtd">
<svg version="1.0" xmlns="http://www.w3.org/2000/svg"
 width="1133.000000pt" height="1238.000000pt" viewBox="0 0 1133.000000 1238.000000"
 preserveAspectRatio="xMidYMid meet">

<g transform="translate(0.000000,1238.000000) scale(0.100000,-0.100000)"
fill="#000000" stroke="none">
<path d="M8350 12275 c-100 -22 -208 -82 -426 -233 -156 -108 -1794 -1255
-4304 -3013 -288 -201 -470 -332 -518 -372 -95 -79 -168 -193 -199 -310 -21
-81 -20 -230 2 -327 27 -116 26 -119 -25 -157 -127 -95 -230 -197 -266 -265
-76 -144 -203 -898 -409 -2423 -106 -785 -122 -867 -188 -952 -17 -24 -127
-125 -243 -225 -115 -101 -258 -225 -318 -276 -59 -52 -110 -101 -114 -110 -9
-24 25 -81 383 -652 177 -283 494 -792 705 -1130 432 -695 475 -760 500 -760
9 0 203 188 431 418 365 368 423 423 494 464 170 99 396 175 735 247 624 134
802 201 1035 391 190 155 286 315 405 670 172 514 332 1266 614 2885 47 270
104 588 125 707 67 363 75 521 36 703 -31 148 -133 297 -253 369 -200 119
-506 127 -731 18 -69 -33 -202 -164 -249 -244 -102 -174 -136 -313 -222 -902
-71 -486 -125 -725 -196 -866 -62 -125 -200 -220 -318 -220 l-62 0 -366 523
c-479 683 -532 762 -525 780 3 8 25 30 49 49 24 20 576 409 1228 865 3646
2553 4227 2957 4285 2979 14 6 132 -154 551 -751 653 -928 977 -1404 1001
-1468 37 -102 12 -261 -57 -355 -40 -56 -319 -254 -2780 -1977 -1223 -856
-1492 -1045 -1502 -1054 -13 -11 -81 -398 -75 -422 8 -31 75 -72 168 -105 99
-35 327 -45 441 -20 283 63 517 340 518 614 0 46 2 53 18 48 105 -30 232 -33
337 -6 201 51 376 189 466 367 29 58 34 77 40 185 4 66 10 122 13 125 2 2 56
-1 119 -8 135 -15 249 -4 363 35 95 32 127 49 211 112 104 80 177 184 225 321
20 61 23 83 20 208 -1 77 -3 162 -5 190 l-2 49 140 101 c77 56 376 267 665
470 289 202 568 401 622 441 192 146 253 219 303 361 43 122 31 343 -26 456
-27 53 -138 216 -503 737 -854 1222 -1633 2328 -1740 2470 -56 75 -87 105
-148 146 -141 94 -328 133 -478 99z m293 -274 c27 -13 71 -46 98 -74 56 -57
149 -190 149 -214 0 -8 -12 -25 -27 -36 -123 -97 -714 -518 -1353 -964 -228
-159 -1247 -872 -2265 -1584 -1017 -713 -1864 -1304 -1882 -1314 -32 -18 -33
-18 -54 1 -31 28 -117 158 -146 221 -23 49 -25 64 -21 151 5 120 36 196 106
265 26 25 135 107 241 182 586 413 4577 3205 4710 3294 35 24 89 57 120 73 54
29 59 30 166 26 90 -3 120 -9 158 -27z"/>
<path d="M540 3614 c-281 -169 -427 -263 -455 -294 l-20 -22 42 -78 c38 -72
266 -441 788 -1280 111 -179 397 -640 635 -1025 549 -889 515 -839 563 -843
34 -3 60 11 230 116 106 66 251 156 324 201 73 45 141 93 152 107 l20 26 -30
61 c-33 65 -79 140 -519 847 -155 250 -407 655 -558 900 -590 954 -663 1072
-761 1226 -56 87 -107 166 -114 175 -31 40 -46 34 -297 -117z"/>
</g>
</svg>
