<?xml version="1.0" standalone="no"?>
<!DOCTYPE svg PUBLIC "-//W3C//DTD SVG 20010904//EN"
 "http://www.w3.org/TR/2001/REC-SVG-20010904/DTD/svg10.dtd">
<svg version="1.0" xmlns="http://www.w3.org/2000/svg"
 width="512.000000pt" height="512.000000pt" viewBox="0 0 512.000000 512.000000"
 preserveAspectRatio="xMidYMid meet">

<g transform="translate(0.000000,512.000000) scale(0.100000,-0.100000)"
fill="#000000" stroke="none">
<path d="M2003 3500 c-218 -39 -402 -207 -458 -420 -19 -72 -19 -206 0 -284
34 -135 163 -360 313 -546 163 -203 578 -612 669 -659 34 -17 114 -13 148 8
82 50 488 450 627 617 156 189 272 377 324 525 32 90 43 239 24 320 -44 194
-199 358 -400 425 -82 27 -216 25 -302 -5 -85 -29 -195 -100 -284 -184 l-69
-64 -75 69 c-172 159 -350 227 -517 198z m214 -140 c71 -25 149 -79 245 -169
80 -75 82 -76 134 -76 52 0 55 2 116 61 173 169 301 226 450 203 213 -33 378
-221 378 -431 0 -98 -14 -147 -81 -283 -95 -193 -247 -389 -494 -640 -198
-201 -339 -325 -369 -325 -29 0 -160 114 -351 305 -280 279 -469 532 -559 745
-29 69 -31 84 -31 190 0 109 2 119 32 183 42 89 130 177 215 217 109 51 206
57 315 20z"/>
</g>
</svg>
