<?xml version="1.0" standalone="no"?>
<!DOCTYPE svg PUBLIC "-//W3C//DTD SVG 20010904//EN"
 "http://www.w3.org/TR/2001/REC-SVG-20010904/DTD/svg10.dtd">
<svg version="1.0" xmlns="http://www.w3.org/2000/svg"
 width="900.000000pt" height="980.000000pt" viewBox="0 0 900.000000 980.000000"
 preserveAspectRatio="xMidYMid meet">

<g transform="translate(0.000000,980.000000) scale(0.100000,-0.100000)"
fill="#000000" stroke="none">
<path d="M4310 9793 c-109 -8 -276 -36 -403 -68 -595 -150 -1119 -526 -1463
-1050 -396 -603 -522 -1346 -348 -2050 220 -889 896 -1593 1756 -1829 246 -67
352 -81 643 -81 284 0 373 10 597 66 170 42 303 91 473 174 663 323 1151 927
1335 1655 95 375 105 793 29 1163 -158 761 -647 1414 -1315 1755 -408 208
-857 299 -1304 265z"/>
<path d="M3170 4299 c-723 -74 -1416 -418 -1930 -956 -542 -567 -871 -1315
-930 -2108 -13 -183 -13 -505 1 -581 21 -115 90 -223 194 -301 284 -214 805
-313 1785 -342 342 -10 3917 -10 4285 0 1347 36 1945 201 2097 577 22 55 23
66 23 362 0 327 -11 447 -61 700 -173 878 -683 1655 -1404 2139 -428 287 -909
460 -1419 511 -127 12 -2517 11 -2641 -1z"/>
</g>
</svg>
