<?xml version="1.0" standalone="no"?>
<!DOCTYPE svg PUBLIC "-//W3C//DTD SVG 20010904//EN"
 "http://www.w3.org/TR/2001/REC-SVG-20010904/DTD/svg10.dtd">
<svg version="1.0" xmlns="http://www.w3.org/2000/svg"
 width="321.000000pt" height="604.000000pt" viewBox="0 0 321.000000 604.000000"
 preserveAspectRatio="xMidYMid meet">

<g transform="translate(0.000000,604.000000) scale(0.100000,-0.100000)"
fill="#000000" stroke="none">
<path d="M1544 5943 c-20 -43 -56 -127 -81 -188 -124 -300 -162 -385 -258
-565 -112 -213 -145 -286 -166 -370 -17 -70 -17 -219 0 -290 20 -84 101 -247
180 -363 99 -146 113 -159 159 -155 52 4 55 38 8 112 -50 77 -129 237 -159
323 -15 40 -32 111 -39 157 -17 117 2 190 93 366 135 262 237 476 274 575 20
55 40 106 44 113 4 8 29 -43 61 -125 29 -76 102 -235 163 -353 168 -329 177
-347 194 -421 30 -122 -4 -274 -108 -482 -27 -54 -65 -123 -85 -153 -47 -74
-44 -108 8 -112 46 -4 60 9 159 155 79 116 160 279 180 363 19 79 17 221 -5
308 -10 41 -49 132 -89 210 -186 364 -215 424 -251 517 -22 55 -74 179 -116
275 -70 161 -78 175 -103 178 -25 3 -30 -2 -63 -75z"/>
<path d="M1561 4736 c-8 -10 -10 -235 -9 -832 l3 -819 45 0 45 0 6 815 c4 483
3 822 -3 833 -11 21 -70 23 -87 3z"/>
<path d="M1011 4203 c-15 -13 -30 -52 -50 -128 -37 -139 -69 -224 -132 -350
-93 -184 -190 -318 -449 -620 -280 -327 -355 -464 -367 -670 -15 -251 94 -474
390 -797 l109 -119 47 3 c65 4 66 30 7 106 -24 32 -85 119 -135 193 l-90 134
67 8 c90 10 149 31 219 76 129 85 243 241 303 416 26 75 50 211 50 281 l0 54
33 0 c20 0 41 7 50 18 8 9 52 87 98 172 45 85 84 157 86 159 2 3 2 -202 1
-455 l-3 -459 -30 -60 c-21 -42 -61 -91 -132 -163 -96 -95 -103 -106 -103
-142 0 -31 10 -52 50 -105 123 -163 164 -310 125 -457 -13 -53 -75 -214 -95
-250 -6 -10 -10 -40 -10 -67 0 -43 5 -56 43 -101 188 -229 280 -388 427 -735
50 -119 56 -127 88 -123 22 3 34 22 90 143 200 434 229 484 420 715 37 45 42
58 42 101 0 27 -4 57 -10 67 -20 36 -82 197 -95 250 -39 147 2 294 125 457 40
53 50 74 50 105 0 36 -7 47 -103 142 -71 72 -111 121 -132 163 l-30 60 -3 459
c-1 253 -1 458 1 455 2 -2 41 -74 86 -159 46 -85 90 -163 98 -172 9 -11 30
-18 50 -18 l33 0 0 -54 c0 -70 24 -206 50 -281 60 -175 174 -331 303 -416 70
-45 129 -66 219 -76 l67 -8 -90 -134 c-50 -74 -111 -161 -135 -193 -59 -76
-58 -102 7 -106 l47 -3 109 119 c296 323 405 546 390 797 -12 206 -87 343
-367 670 -259 302 -356 436 -449 620 -63 126 -95 211 -132 350 -31 119 -49
145 -101 145 -38 0 -78 -40 -78 -77 0 -44 56 -245 96 -347 47 -118 108 -233
190 -360 80 -122 124 -178 318 -406 82 -96 176 -211 209 -255 138 -186 183
-342 143 -493 -14 -51 -85 -212 -94 -212 -2 0 -31 7 -65 16 -144 37 -274 131
-357 259 -51 78 -122 238 -166 370 -21 64 -38 101 -48 103 -11 3 -16 15 -16
45 -1 35 -35 106 -203 422 -197 370 -203 380 -232 380 l-30 0 -8 -680 c-4
-374 -5 -709 -2 -743 10 -115 59 -209 172 -332 l60 -65 -24 -35 c-46 -64 -103
-194 -119 -270 -12 -54 -14 -102 -10 -170 6 -110 14 -139 68 -277 l40 -101
-68 -84 c-94 -115 -146 -198 -239 -380 l-81 -157 -67 135 c-85 171 -157 286
-247 397 l-72 89 40 101 c54 138 62 167 68 277 4 68 2 116 -10 170 -16 76 -73
206 -119 270 l-24 35 60 65 c113 123 162 217 172 332 3 34 2 369 -2 743 l-8
680 -30 0 c-29 0 -35 -10 -232 -380 -168 -316 -202 -387 -203 -422 0 -30 -5
-42 -16 -45 -10 -2 -27 -39 -48 -103 -44 -132 -115 -292 -166 -370 -83 -128
-213 -222 -357 -259 -34 -9 -63 -16 -65 -16 -9 0 -80 161 -94 212 -40 151 5
307 143 493 33 44 127 159 209 255 194 228 238 284 318 406 82 127 143 242
190 360 40 102 96 303 96 347 0 62 -81 99 -129 60z"/>
</g>
</svg>
