<?xml version="1.0" standalone="no"?>
<!DOCTYPE svg PUBLIC "-//W3C//DTD SVG 20010904//EN"
 "http://www.w3.org/TR/2001/REC-SVG-20010904/DTD/svg10.dtd">
<svg version="1.0" xmlns="http://www.w3.org/2000/svg"
 width="1000.000000pt" height="1000.000000pt" viewBox="0 0 1000.000000 1000.000000"
 preserveAspectRatio="xMidYMid meet">

<g transform="translate(0.000000,1000.000000) scale(0.100000,-0.100000)"
fill="#000000" stroke="none">
<path d="M4949 8273 c-28 -59 -68 -144 -89 -188 -21 -44 -41 -90 -45 -103 -18
-60 -172 -359 -240 -467 -102 -160 -168 -313 -186 -428 -25 -156 75 -390 273
-634 44 -54 89 -86 103 -72 2 2 -19 38 -46 79 -112 170 -185 332 -208 464 -27
151 -2 255 103 441 35 60 91 159 125 219 80 140 123 226 177 359 24 60 54 126
67 148 l24 39 41 -87 c23 -49 50 -111 61 -140 28 -71 101 -215 174 -343 219
-383 221 -387 221 -530 0 -79 -5 -124 -22 -183 -27 -94 -111 -264 -186 -377
-31 -46 -54 -85 -52 -88 24 -23 110 67 217 229 120 180 165 309 156 449 -8
131 -42 215 -177 445 -99 169 -129 224 -182 335 -31 63 -60 131 -67 151 -6 20
-47 109 -91 198 -44 89 -80 166 -80 171 0 5 -5 12 -10 15 -6 4 -32 -40 -61
-102z"/>
<path d="M4975 6298 c-4 -431 -5 -801 -3 -823 2 -32 7 -41 25 -43 16 -2 24 3
28 20 3 13 4 383 3 823 l-3 800 -21 3 -22 3 -7 -783z"/>
<path d="M4362 6521 c-7 -4 -21 -40 -31 -79 -28 -106 -98 -286 -149 -382 -96
-178 -232 -355 -456 -595 -253 -270 -315 -344 -375 -450 -51 -89 -78 -164 -93
-258 -19 -125 23 -280 118 -438 69 -114 170 -237 307 -371 100 -100 124 -118
150 -118 l31 0 -30 33 c-79 84 -267 346 -357 497 -76 127 -98 193 -104 311 -7
121 14 199 86 314 59 95 92 135 311 370 212 229 292 323 383 455 90 130 163
263 217 399 36 91 80 243 80 278 0 32 -56 55 -88 34z"/>
<path d="M5576 6514 c-21 -20 -20 -33 8 -140 51 -188 155 -401 287 -585 97
-136 152 -200 369 -434 205 -220 274 -304 328 -399 95 -167 97 -344 6 -521
-65 -125 -266 -415 -394 -567 l-32 -38 27 0 c32 0 103 62 247 217 243 263 337
461 325 682 -6 113 -28 181 -93 292 -59 102 -119 174 -333 403 -212 228 -281
310 -373 441 -126 182 -209 358 -263 559 -14 49 -30 93 -37 98 -21 13 -55 9
-72 -8z"/>
<path d="M4714 5942 c-11 -20 -47 -82 -79 -137 -32 -55 -75 -129 -95 -165 -21
-36 -87 -151 -149 -257 -61 -106 -111 -200 -111 -211 0 -26 20 -42 51 -42 33
0 50 16 85 78 59 104 109 192 163 282 l56 95 3 -510 c2 -350 0 -526 -8 -562
-17 -81 -143 -234 -254 -309 -51 -35 -49 -67 9 -135 53 -63 117 -166 141 -229
13 -33 18 -75 18 -160 0 -126 -3 -137 -92 -335 -27 -60 -39 -99 -35 -116 2
-14 36 -59 74 -99 163 -171 277 -357 470 -765 l42 -90 117 235 c160 324 236
444 379 600 44 49 85 99 90 112 10 27 -2 64 -59 188 -114 249 -92 425 80 641
66 82 75 117 37 142 -51 33 -148 125 -195 184 -85 105 -83 86 -80 683 l3 525
55 -95 c30 -51 89 -153 130 -224 46 -81 82 -132 93 -134 34 -7 67 8 72 31 6
24 -30 90 -342 625 -31 53 -68 118 -82 144 -15 26 -29 48 -34 48 -4 0 -6 -336
-5 -747 l3 -748 24 -54 c29 -64 102 -156 188 -235 l62 -57 -56 -77 c-162 -224
-176 -432 -48 -711 l47 -102 -79 -87 c-125 -138 -242 -315 -348 -529 l-49
-100 -54 106 c-128 249 -239 413 -385 568 l-39 41 37 84 c69 153 87 216 92
318 8 157 -24 255 -133 412 l-53 77 76 73 c86 84 145 159 176 226 22 47 22 53
25 795 1 411 -1 747 -5 747 -4 0 -17 -17 -29 -38z"/>
<path d="M4226 5048 c-21 -76 -100 -254 -157 -355 -65 -113 -179 -230 -270
-275 -81 -40 -171 -72 -237 -83 -47 -8 -52 -17 -20 -39 48 -34 189 -15 308 41
61 29 93 54 171 132 86 87 102 108 153 211 65 133 85 201 93 320 4 68 3 88 -9
98 -13 10 -17 2 -32 -50z"/>
<path d="M5750 5096 c-17 -22 -8 -155 19 -255 37 -141 154 -330 259 -419 106
-89 240 -142 363 -142 41 0 63 5 80 19 13 11 22 21 19 23 -3 3 -45 14 -94 26
-143 35 -240 89 -333 185 -43 45 -97 115 -120 155 -55 94 -142 291 -163 365
-14 51 -18 57 -30 43z"/>
<path d="M3043 2629 c-8 -30 -36 -81 -132 -246 -45 -78 -81 -150 -79 -160 2
-9 18 -26 36 -36 26 -15 35 -17 47 -7 19 16 154 255 189 334 34 76 33 97 -3
119 -38 22 -52 21 -58 -4z"/>
<path d="M6842 2532 l-24 -19 46 -91 c62 -122 61 -126 -14 -117 -32 4 -96 15
-142 25 -78 17 -85 18 -118 2 -22 -11 -36 -25 -38 -39 -2 -13 -1 -23 2 -23 2
0 36 -7 74 -15 38 -8 131 -23 207 -34 76 -11 140 -23 142 -25 3 -3 25 -53 48
-113 24 -59 48 -109 52 -110 5 -2 30 10 56 26 l46 30 -15 38 c-8 21 -21 52
-29 68 -135 290 -210 415 -247 415 -13 0 -34 -9 -46 -18z"/>
<path d="M6304 2477 l-27 -23 37 -48 c73 -96 172 -284 195 -373 7 -24 17 -44
24 -44 46 -4 107 23 107 48 0 14 -73 146 -165 298 -60 99 -110 165 -127 165
-9 0 -29 -10 -44 -23z"/>
<path d="M3113 2453 c-3 -10 -25 -63 -48 -118 -60 -140 -79 -199 -72 -218 6
-16 67 -47 94 -47 8 0 42 23 76 50 89 72 208 132 254 128 59 -5 60 -19 18
-167 -20 -72 -34 -138 -31 -146 7 -20 54 -38 81 -31 16 4 28 26 50 93 38 113
41 217 9 260 -39 52 -80 68 -175 68 -79 0 -89 -2 -139 -33 -29 -18 -55 -31
-57 -28 -3 2 4 35 14 73 23 82 20 107 -13 122 -35 16 -54 14 -61 -6z"/>
<path d="M6149 2411 l-23 -18 33 -49 c52 -78 149 -283 169 -359 17 -62 22 -70
45 -73 33 -4 97 26 97 45 0 23 -190 381 -239 450 -20 27 -51 29 -82 4z"/>
<path d="M3656 2209 c-5 -17 -50 -211 -67 -293 -12 -56 -12 -60 9 -76 12 -10
38 -21 58 -25 36 -6 39 -4 118 78 130 134 219 183 260 142 11 -11 15 -26 12
-39 -11 -40 -29 -243 -23 -258 7 -19 58 -32 85 -23 15 4 22 22 32 83 37 225
-13 322 -164 322 -81 0 -129 -17 -181 -62 -24 -21 -46 -38 -50 -38 -4 0 -4 37
0 83 8 92 3 102 -53 113 -22 5 -33 2 -36 -7z"/>
<path d="M6042 2161 c-65 -23 -121 -74 -172 -161 -45 -75 -70 -141 -72 -187
-1 -18 -5 -33 -9 -33 -17 0 -48 53 -59 103 -15 67 -53 125 -86 133 -34 9 -101
-1 -121 -17 -8 -7 -29 -37 -45 -66 -33 -59 -44 -64 -58 -29 -16 42 -53 59
-117 54 -49 -4 -61 -10 -83 -36 -32 -39 -40 -40 -40 -4 0 15 -5 44 -11 65 -10
35 -12 37 -53 37 -51 0 -73 -18 -57 -48 5 -10 19 -88 31 -173 28 -202 24 -191
68 -183 71 11 69 10 108 130 21 63 42 113 47 111 6 -2 29 -36 51 -75 43 -78
41 -77 117 -56 9 2 32 45 53 99 21 52 42 95 47 95 12 0 26 -30 48 -101 11 -33
27 -69 37 -80 21 -24 90 -26 122 -4 16 12 34 14 70 9 36 -5 59 -2 85 11 47 22
119 100 151 164 15 28 28 51 30 51 3 0 21 -27 40 -59 20 -32 43 -62 52 -65 15
-6 84 18 84 29 0 18 -34 81 -74 135 -25 35 -53 85 -61 111 -11 32 -23 49 -38
53 -29 7 -24 8 -85 -13z m10 -117 c-6 -55 -130 -241 -145 -217 -8 12 46 133
88 198 38 60 62 68 57 19z"/>
<path d="M4267 2006 c-55 -60 -90 -135 -97 -209 -4 -40 -3 -80 2 -89 27 -55
160 -66 249 -20 69 35 100 87 101 168 1 46 -4 61 -29 92 -61 77 -180 108 -226
58z m146 -69 c13 -20 -1 -105 -25 -148 -23 -41 -61 -69 -94 -69 -15 0 -16 8
-10 64 12 119 48 183 96 171 13 -4 28 -12 33 -18z"/>
<path d="M4554 1947 c-8 -21 55 -300 71 -316 14 -14 107 -22 118 -11 3 3 14
49 25 102 11 54 27 109 36 124 24 35 74 54 144 54 42 0 63 5 72 15 24 29 -4
40 -103 40 -107 0 -173 -21 -211 -66 -14 -16 -27 -29 -30 -29 -3 0 -8 17 -12
38 -4 20 -11 43 -17 50 -13 17 -86 16 -93 -1z"/>
</g>
</svg>
