<?xml version="1.0" standalone="no"?>
<!DOCTYPE svg PUBLIC "-//W3C//DTD SVG 20010904//EN"
 "http://www.w3.org/TR/2001/REC-SVG-20010904/DTD/svg10.dtd">
<svg version="1.0" xmlns="http://www.w3.org/2000/svg"
 width="512.000000pt" height="512.000000pt" viewBox="0 0 512.000000 512.000000"
 preserveAspectRatio="xMidYMid meet">

<g transform="translate(0.000000,512.000000) scale(0.100000,-0.100000)"
fill="#000000" stroke="none">
<path d="M4154 4530 c-22 -5 -806 -391 -1741 -858 -1639 -820 -1701 -852
-1746 -901 -60 -68 -80 -129 -75 -229 5 -93 25 -140 88 -202 39 -39 269 -157
1745 -894 l1700 -850 82 -4 c71 -3 89 -1 136 21 188 86 252 306 137 471 -16
23 -348 357 -739 744 -390 387 -713 713 -717 724 -5 17 114 142 728 757 832
833 784 776 776 926 -5 93 -27 144 -89 206 -72 72 -189 109 -285 89z"/>
</g>
</svg>
