<?xml version="1.0" standalone="no"?>
<!DOCTYPE svg PUBLIC "-//W3C//DTD SVG 20010904//EN"
 "http://www.w3.org/TR/2001/REC-SVG-20010904/DTD/svg10.dtd">
<svg version="1.0" xmlns="http://www.w3.org/2000/svg"
 width="524.000000pt" height="577.000000pt" viewBox="0 0 524.000000 577.000000"
 preserveAspectRatio="xMidYMid meet">

<g transform="translate(0.000000,577.000000) scale(0.100000,-0.100000)"
fill="#000000" stroke="none">
<path d="M2505 5663 c-529 -269 -1234 -524 -1860 -672 -138 -33 -561 -121
-580 -121 -8 0 -5 -1143 5 -1615 9 -462 15 -526 70 -755 110 -455 323 -874
631 -1243 93 -113 353 -366 481 -469 365 -296 898 -594 1301 -728 l68 -22 77
27 c116 41 373 151 503 216 578 288 1088 713 1429 1189 227 317 385 667 470
1040 45 195 60 317 71 565 12 248 8 1779 -3 1791 -4 4 -126 30 -270 60 -737
148 -1311 339 -2018 673 -129 61 -241 113 -250 115 -8 3 -64 -20 -125 -51z
m1061 -2032 c93 -42 140 -168 100 -265 -26 -63 -1019 -1064 -1195 -1206 -34
-28 -73 -53 -87 -56 -45 -11 -113 3 -157 32 -57 39 -620 602 -639 639 -24 46
-31 108 -18 154 22 81 119 161 196 161 73 0 120 -35 346 -258 l217 -215 468
460 c502 493 570 557 593 566 35 13 136 6 176 -12z"/>
</g>
</svg>
