<?xml version="1.0" standalone="no"?>
<!DOCTYPE svg PUBLIC "-//W3C//DTD SVG 20010904//EN"
 "http://www.w3.org/TR/2001/REC-SVG-20010904/DTD/svg10.dtd">
<svg version="1.0" xmlns="http://www.w3.org/2000/svg"
 width="128.000000pt" height="128.000000pt" viewBox="0 0 128.000000 128.000000"
 preserveAspectRatio="xMidYMid meet">

<g transform="translate(0.000000,128.000000) scale(0.100000,-0.100000)"
fill="#000000" stroke="none">
<path d="M695 1261 c-54 -25 -681 -655 -690 -693 -14 -57 2 -79 243 -321 245
-246 264 -260 324 -242 36 11 667 642 689 690 16 35 19 66 19 260 0 202 -2
223 -20 253 -11 18 -34 41 -52 52 -30 18 -51 20 -253 20 -194 0 -225 -3 -260
-19z m400 -171 c83 -83 -10 -222 -118 -176 -94 39 -95 166 -2 207 35 15 87 2
120 -31z m-461 -184 c45 -19 66 -52 66 -102 0 -78 -67 -127 -141 -105 -95 29
-106 160 -17 204 41 20 50 21 92 3z m254 -288 c18 -18 14 -46 -7 -58 -12 -6
-124 -10 -295 -10 -236 0 -277 2 -290 16 -19 19 -20 36 -4 52 17 17 579 17
596 0z m-222 -162 c28 -28 34 -41 34 -77 -1 -68 -44 -109 -115 -109 -29 0 -45
8 -72 35 -33 33 -35 39 -30 82 11 100 114 138 183 69z"/>
<path d="M561 821 c-13 -24 8 -55 34 -50 28 6 42 34 26 53 -18 22 -48 20 -60
-3z"/>
<path d="M566 404 c-9 -8 -16 -19 -16 -24 0 -13 30 -40 44 -40 35 0 48 53 17
70 -25 13 -27 13 -45 -6z"/>
</g>
</svg>
